<?xml version="1.0" standalone="no"?>
<!DOCTYPE svg PUBLIC "-//W3C//DTD SVG 20010904//EN"
 "http://www.w3.org/TR/2001/REC-SVG-20010904/DTD/svg10.dtd">
<svg version="1.0" xmlns="http://www.w3.org/2000/svg"
 width="300.000000pt" height="260.000000pt" viewBox="0 0 300.000000 260.000000"
 preserveAspectRatio="xMidYMid meet">
<metadata>
Created by potrace 1.10, written by Peter Selinger 2001-2011
</metadata>
<g transform="translate(0.000000,260.000000) scale(0.100000,-0.100000)"
fill="#000000" stroke="none">
<path d="M470 1538 l0 -693 380 3 380 2 0 -145 0 -145 643 0 642 0 -3 707 -2
708 -358 -3 -357 -2 4 130 3 130 -666 0 -666 0 0 -692z m1300 539 c4 -90 9
-120 20 -127 9 -6 158 -10 353 -10 l337 0 0 -675 0 -675 -608 0 -609 0 -2 127
c-2 101 -6 132 -18 145 -15 17 -46 18 -380 18 l-363 0 0 660 0 660 633 -2 632
-3 5 -118z"/>
<path d="M722 1974 c-7 -3 -19 -19 -27 -34 -12 -24 -15 -85 -15 -338 0 -368
-3 -357 100 -357 91 0 100 14 100 161 0 119 2 124 45 108 18 -7 49 -66 90
-172 34 -87 61 -107 136 -100 59 6 79 21 79 60 0 32 -71 207 -102 251 l-20 29
30 31 c45 48 62 90 62 152 0 87 -39 149 -120 191 -29 15 -63 19 -190 21 -85 1
-161 0 -168 -3z m312 -35 c51 -13 113 -61 127 -98 15 -39 12 -125 -5 -159 -18
-34 -71 -82 -92 -82 -21 0 -17 -10 13 -33 27 -22 119 -203 130 -258 l6 -30
-73 3 -72 3 -44 110 c-50 126 -75 155 -134 155 l-39 0 -3 -132 -3 -133 -65 0
-65 0 -3 319 c-2 227 1 323 9 332 14 17 248 20 313 3z"/>
<path d="M850 1751 l0 -96 64 3 c88 5 118 31 114 99 -4 61 -31 81 -115 86
l-63 4 0 -96z m131 49 c12 -7 19 -21 19 -42 0 -46 -25 -68 -77 -68 l-43 0 0
60 0 60 41 0 c22 0 49 -5 60 -10z"/>
<path d="M1518 1604 c-14 -10 -31 -28 -37 -41 -7 -16 -11 -132 -11 -327 0
-296 1 -304 22 -331 20 -25 25 -27 81 -23 87 6 87 7 87 222 0 103 4 176 9 171
4 -6 34 -84 65 -175 71 -208 75 -214 153 -218 49 -2 62 1 77 17 11 12 49 105
87 208 l68 188 0 -181 c1 -168 3 -183 22 -208 17 -22 28 -26 73 -26 86 0 90 6
97 167 4 76 4 223 1 327 -5 176 -7 190 -27 214 -19 22 -33 27 -87 30 -74 5
-128 -13 -152 -51 -9 -13 -45 -100 -80 -193 -36 -93 -67 -169 -71 -169 -4 0
-35 78 -70 174 -80 221 -91 233 -202 238 -61 3 -84 0 -105 -13z m200 -42 c10
-10 53 -116 97 -235 43 -119 79 -216 81 -215 1 2 38 99 82 216 44 117 88 222
98 233 14 16 31 19 104 19 71 0 89 -3 94 -16 3 -9 6 -157 6 -329 0 -348 5
-325 -70 -325 -21 0 -43 6 -50 15 -9 10 -11 84 -8 284 1 148 2 269 1 268 0 -1
-43 -119 -93 -262 -51 -143 -99 -270 -106 -282 -12 -19 -23 -23 -62 -23 -26 0
-52 4 -58 8 -6 4 -50 122 -98 262 -48 140 -91 264 -96 275 -5 12 -9 -93 -9
-256 -1 -306 3 -289 -66 -289 -69 0 -65 -20 -65 322 0 194 4 317 10 329 9 17
22 19 100 19 73 0 93 -3 108 -18z"/>
</g>
</svg>
